<svg id="Layer_1" xmlns="http://www.w3.org/2000/svg" viewBox="-289 381 32 32"><style>.st0{fill:#504F4F;} .st1{fill:#FFFFFF;}</style><path class="st0" d="M-260.3 408.6c-.2.2-.4.3-.7.3s-.6-.1-.8-.3c0-.1-.1-.1-.2-.2-.1 0-.1-.1-.1-.1-1.4-1.4-3.4-2.3-5.5-2.3-2.2 0-4.6 1.1-6.1 2.6l-.2.2c-.1.1-.3.2-.6.2s-.6-.1-.8-.3c-1.4-1.6-4.1-2.7-6.3-2.7-2.1 0-3.9.9-5.3 2.3-.1.1-.1.2-.2.2l-.1.1c-.2.2-.5.3-.7.3-.3 0-.5-.1-.7-.3-.3-.2-.4-.5-.4-.7v-19.1c0-.4.2-.7.5-.9 1.8-1.8 4.2-2.9 6.9-2.9 2.5 0 5.4 1 7.1 2.5 1.8-1.5 4.5-2.5 7-2.5 2.7 0 5.2 1 7 2.8.5.7.5 1.2.5 1.2v18.9c0 .3-.1.5-.3.7z"/><path class="st1" d="M-273.5 387.9c-.2.2-.4.3-.5.5v18.1c1.5-1 4-2.6 6.5-2.6 3 0 3.7.5 6.5 2.4V389c-1.4-1.2-3.6-3.1-6.5-3-1.9 0-4.6.9-6 1.9zm-13.2-.1c-.3.2-1 1-1.3 1.2v17.4c1.1-.7 3-2.4 6.5-2.4s5.9 2.1 6.5 2.5v-18.1c-1.4-1.3-4.5-2.4-6.6-2.4-1.5 0-3.9 1-5.1 1.8z"/></svg>