<svg id="Layer_1" xmlns="http://www.w3.org/2000/svg" viewBox="-289 381 32 32"><style>.st0{fill:#504F4F;} .st1{fill:#FFFFFF;}</style><path class="st0" d="M-270.1 382h-16.8c-1.1 0-2.1 1-2.1 2.2v25.5c0 1.3.9 2.3 2.1 2.3h16.8c1.2 0 2.1-1 2.1-2.2v-25.6c.1-1.2-.9-2.2-2.1-2.2z"/><path class="st1" d="M-288 384h19v23h-19v-23z"/><path class="st0" d="M-273.4 388h-10.1c-.3 0-.5-.2-.5-.4 0-.3.2-.6.5-.6h10.1c.2 0 .4.3.4.5 0 .3-.2.5-.4.5zm0 4h-10.1c-.4 0-.5-.1-.5-.5s.1-.5.5-.5h10.1c.4 0 .5.1.5.5 0 .3-.2.5-.5.5zm0 4h-10.1c-.4 0-.5-.1-.5-.5s.1-.5.5-.5h10.1c.4 0 .5.1.5.5-.1.4-.2.5-.5.5zm0 4h-10.1c-.4 0-.5 0-.5-.4s.1-.5.5-.5h10.1c.4 0 .5.1.5.5-.1.3-.2.4-.5.4zm0 4h-10.1c-.4 0-.5-.1-.5-.5s.1-.5.5-.5h10.1c.4 0 .5.1.5.5-.1.4-.2.5-.5.5z"/><path class="st1" d="M-276.5 410h-4c-.3 0-.5-.2-.5-.5s.2-.5.5-.5h4c.3 0 .5.2.5.5s-.2.5-.5.5z"/></svg>